Coordinates
version=1
nRows=24
nColumns=19
inDegrees=yes

Units are S.I. units (second, meters, Newtons, ...)
If the header above contains a line with 'inDegrees', this indicates whether rotational values are in degrees (yes) or radians (no).

endheader
time	pelvis_tilt	pelvis_list	pelvis_rotation	pelvis_tx	pelvis_ty	pelvis_tz	hip_flexion_r	hip_adduction_r	hip_rotation_r	knee_angle_r	knee_angle_r_beta	ankle_angle_r	hip_flexion_l	hip_adduction_l	hip_rotation_l	knee_angle_l	knee_angle_l_beta	ankle_angle_l
     15.43333333	     -1.89963920	     -8.56383446	     -4.31610495	      2.24992680	      1.09805421	      1.06605534	     28.21318043	     12.45508795	     -4.85537069	     14.74617714	      0.25736934	      6.87579260	    -23.14524027	     -9.46407061	    -15.82220406	     58.08346398	      1.01374769	    -15.87057970
     15.44000000	     -1.40968217	     -9.03628097	     -4.48792722	      2.25046915	      1.09440328	      1.06701402	     26.99804500	     12.86859063	     -5.38938473	     14.89640804	      0.25999137	      5.91895359	    -22.46648117	    -10.15814486	    -15.56479277	     62.33760741	      1.08799650	    -15.19414043
     15.44666667	     -0.97858494	     -9.62639133	     -4.76285464	      2.25061039	      1.09037692	      1.06803701	     26.15350856	     13.34362439	     -6.23237355	     15.96944425	      0.27871938	      5.14672363	    -21.67664418	    -10.98699566	    -15.47188104	     66.62512463	      1.16282779	    -14.35476032
     15.45333333	     -0.87080682	    -10.21017558	     -5.12349873	      2.25027875	      1.08571548	      1.06902898	     25.97435048	     13.74670369	     -7.27370722	     17.94736612	      0.31324063	      4.62156194	    -20.41263962	    -11.81861753	    -15.31989279	     70.99070178	      1.23902148	    -13.29600663
     15.46000000	     -0.83944141	    -10.84956124	     -5.63853607	      2.24946245	      1.08072899	      1.07004160	     26.08373606	     14.19060940	     -8.22364440	     20.60716008	      0.35966279	      4.42430285	    -19.02532902	    -12.69379438	    -15.28851133	     75.32473118	      1.31466457	    -12.04230619
     15.46666667	     -0.84957373	    -11.53729917	     -6.32974781	      2.24821888	      1.07542422	      1.07109425	     26.35852716	     14.69046052	     -8.99629022	     23.76974758	      0.41486036	      4.65195689	    -17.59364165	    -13.65165335	    -15.46671773	     79.59802331	      1.38924758	    -10.63715639
     15.47333333	     -0.51147766	    -12.44041732	     -7.06155833	      2.24657750	      1.07052747	      1.07198360	     26.19476641	     15.41406235	     -9.47048393	     27.02824888	      0.47173193	      5.23227166	    -16.57072970	    -14.81821723	    -15.79425910	     83.69245060	      1.46070882	     -9.13389915
     15.48000000	     -1.13306918	    -12.92517582	     -7.95752589	      2.24442824	      1.06461448	      1.07297961	     27.16835080	     15.86413257	     -9.52394685	     30.61045573	      0.53425324	      6.25673614	    -14.19242544	    -15.60731303	    -15.68231461	     87.88230635	      1.53383560	     -7.54985273
     15.48666667	     -1.35209610	    -13.65590673	     -8.82741331	      2.24194928	      1.05947212	      1.07379815	     27.46987864	     16.61466124	     -9.31568212	     33.87026805	      0.59114770	      7.59302182	    -12.25401293	    -16.67064998	    -15.65181056	     91.83909464	      1.60289458	     -5.96920928
     15.49333333	     -1.62527108	    -14.40733818	     -9.65412224	      2.23918915	      1.05475844	      1.07443748	     27.61860780	     17.44833686	     -8.91652861	     36.80966627	      0.64244987	      9.18466548	    -10.09380185	    -17.79260080	    -15.40058173	     95.63488062	      1.66914355	     -4.46623849
     15.50000000	     -1.96159777	    -15.13201617	    -10.39578934	      2.23619572	      1.05056366	      1.07488747	     27.58982719	     18.28804826	     -8.40635406	     39.34335831	      0.68667114	     10.96281931	     -7.64838261	    -18.90334702	    -14.83279855	     99.23997737	      1.73206435	     -3.09331315
     15.50666667	     -2.33293903	    -15.85387615	    -10.98214378	      2.23306694	      1.04700900	      1.07506830	     27.32348056	     19.11848849	     -7.86274304	     41.38124236	      0.72223893	     12.84110282	     -4.90872577	    -20.01755473	    -13.87939192	    102.62542531	      1.79115157	     -1.89079488
     15.51333333	     -2.49741697	    -16.54725139	    -11.35357903	      2.22993613	      1.04441832	      1.07487437	     26.55500106	     19.83661629	     -7.31036554	     42.92201448	      0.74913047	     14.72273014	     -2.12982129	    -20.97596252	    -12.53457446	    105.68326577	      1.84452095	     -0.89133842
     15.52000000	     -3.18894464	    -16.87292574	    -11.53147078	      2.22677565	      1.04184689	      1.07445541	     26.20378407	     20.15045963	     -6.90133222	     44.08505315	      0.76942933	     16.60263624	      1.69861110	    -21.55202767	    -10.59270882	    108.55999572	      1.89472936	     -0.06026915
     15.52666667	     -3.61759653	    -17.16130338	    -11.44973046	      2.22386191	      1.04028004	      1.07368123	     25.28896578	     20.31715162	     -6.51834707	     44.71990214	      0.78050953	     18.33449763	      5.46041231	    -21.87561533	     -8.34652055	    111.02243178	      1.93770698	      0.57355672
     15.53333333	     -3.99327477	    -17.27106438	    -11.11091743	      2.22121792	      1.03936442	      1.07262361	     24.11961563	     20.20503774	     -6.22717155	     44.93233305	      0.78421715	     19.88571663	      9.39873711	    -21.80437760	     -5.81712115	    113.09488293	      1.97387807	      1.06121843
     15.54000000	     -4.17951450	    -17.24851268	    -10.45621344	      2.21889916	      1.03927382	      1.07123496	     22.54936738	     19.82758012	     -6.10451827	     44.68961834	      0.77998098	     21.10283698	     13.29670708	    -21.34322887	     -3.09385138	    114.73515555	      2.00250623	      1.45042586
     15.54666667	     -4.16023364	    -17.02666879	     -9.73074415	      2.21699748	      1.03981232	      1.06989728	     20.60069360	     19.26535667	     -5.85263142	     44.18189794	      0.77111959	     22.24855545	     16.86408528	    -20.48563571	     -0.59318191	    115.89211511	      2.02269899	      1.80112193
     15.55333333	     -4.12850938	    -16.60400645	     -8.85441202	      2.21551654	      1.04094954	      1.06852032	     18.47826817	     18.48541107	     -5.67999312	     43.32370302	      0.75614126	     23.09995566	     20.36967864	    -19.26580293	      1.78350497	    116.60865604	      2.03520498	      2.10674573
     15.56000000	     -4.11561253	    -16.01958828	     -7.91296247	      2.21433109	      1.04249928	      1.06724814	     16.25710680	     17.57198762	     -5.55811173	     42.20709460	      0.73665277	     23.49524217	     23.74504352	    -17.76781959	      3.93493528	    116.91177425	      2.04049540	      2.42754618
     15.56666667	     -4.11664262	    -15.30217033	     -6.96484068	      2.21356686	      1.04448814	      1.06614515	     13.91934415	     16.58127099	     -5.44731076	     40.83827815	      0.71276241	     23.51679705	     26.90028192	    -16.12354588	      5.74242236	    116.78726192	      2.03832224	      2.81358621
     15.57333333	     -4.10429175	    -14.48790165	     -6.09851130	      2.21304953	      1.04690700	      1.06532678	     11.45951865	     15.56808838	     -5.27709650	     39.26883961	      0.68537054	     23.20482466	     29.77235076	    -14.44835269	      7.13500614	    116.26383666	      2.02918675	      3.29134642
     15.58000000	     -4.46639912	    -13.51978546	     -5.90006037	      2.21284059	      1.04940954	      1.06561499	      9.28202790	     14.68877932	     -4.30967715	     37.65158503	      0.65714413	     22.96087653	     32.60592823	    -13.13280959	      7.62737882	    115.33805511	      2.01302881	      3.89282128
     15.58666667	     -4.23216867	    -12.63960514	     -4.64319706	      2.21306623	      1.05267868	      1.06442132	      6.43181586	     13.52328753	     -4.85114716	     35.59643311	      0.62127496	     21.27683116	     34.88286676	    -11.23809147	      8.77652145	    114.12021458	      1.99177349	      4.39749664
